REM DIRINDEX 1\2\4,1\2\5,1\2\6,1\2\7,1\3\8,1\3\9
REM DIRNAME folder01,folder02,folder03,folder04,folder05,folder06,folder07,folder08,folder09
TITLE ""
FILE "Disc1Track13.mp3" MP3
  TRACK 01 AUDIO
    TITLE "0:"
    INDEX 01 00:00:00
  TRACK 02 AUDIO
    TITLE "4:cjc037_0743"
    INDEX 01 00:00:09
  TRACK 03 AUDIO
    TITLE "0:"
    INDEX 01 00:01:54
  TRACK 04 AUDIO
    TITLE "4:cjc037_0744"
    INDEX 01 00:02:59
  TRACK 05 AUDIO
    TITLE "0:"
    INDEX 01 00:04:58
  TRACK 06 AUDIO
    TITLE "5:cjc037_0745"
    INDEX 01 00:05:34
  TRACK 07 AUDIO
    TITLE "0:"
    INDEX 01 00:09:45
  TRACK 08 AUDIO
    TITLE "6:cjc037_0746"
    INDEX 01 00:13:06
  TRACK 09 AUDIO
    TITLE "0:"
    INDEX 01 00:16:42
  TRACK 10 AUDIO
    TITLE "7:cjc037_0747"
    INDEX 01 00:19:73
  TRACK 11 AUDIO
    TITLE "0:"
    INDEX 01 00:22:40
  TRACK 12 AUDIO
    TITLE "4:cjc037_0748"
    INDEX 01 00:24:71
  TRACK 13 AUDIO
    TITLE "0:"
    INDEX 01 00:26:60
  TRACK 14 AUDIO
    TITLE "5:cjc037_0749"
    INDEX 01 00:27:38
  TRACK 15 AUDIO
    TITLE "0:"
    INDEX 01 00:32:09
  TRACK 16 AUDIO
    TITLE "6:cjc037_0750"
    INDEX 01 00:35:43
  TRACK 17 AUDIO
    TITLE "0:"
    INDEX 01 00:39:13
  TRACK 18 AUDIO
    TITLE "7:cjc037_0751"
    INDEX 01 00:42:47
  TRACK 19 AUDIO
    TITLE "0:"
    INDEX 01 00:45:18
  TRACK 20 AUDIO
    TITLE "4:cjc037_0752"
    INDEX 01 00:47:54
  TRACK 21 AUDIO
    TITLE "0:"
    INDEX 01 00:49:45
  TRACK 22 AUDIO
    TITLE "5:cjc037_0753"
    INDEX 01 00:50:23
  TRACK 23 AUDIO
    TITLE "0:"
    INDEX 01 00:53:21
  TRACK 24 AUDIO
    TITLE "6:cjc037_0754"
    INDEX 01 00:56:55
  TRACK 25 AUDIO
    TITLE "0:"
    INDEX 01 00:59:39
  TRACK 26 AUDIO
    TITLE "7:cjc037_0755"
    INDEX 01 01:03:00
  TRACK 27 AUDIO
    TITLE "0:"
    INDEX 01 01:05:21
  TRACK 28 AUDIO
    TITLE "4:cjc037_0756"
    INDEX 01 01:07:57
  TRACK 29 AUDIO
    TITLE "0:"
    INDEX 01 01:09:48
  TRACK 30 AUDIO
    TITLE "5:cjc037_0757"
    INDEX 01 01:10:24
  TRACK 31 AUDIO
    TITLE "0:"
    INDEX 01 01:14:43
  TRACK 32 AUDIO
    TITLE "6:cjc037_0758"
    INDEX 01 01:18:02
  TRACK 33 AUDIO
    TITLE "0:"
    INDEX 01 01:21:72
  TRACK 34 AUDIO
    TITLE "7:cjc037_0759"
    INDEX 01 01:25:31
  TRACK 35 AUDIO
    TITLE "0:"
    INDEX 01 01:28:33
  TRACK 36 AUDIO
    TITLE "4:cjc037_0760"
    INDEX 01 01:30:66
  TRACK 37 AUDIO
    TITLE "0:"
    INDEX 01 01:32:59
  TRACK 38 AUDIO
    TITLE "5:cjc037_0761"
    INDEX 01 01:33:36
  TRACK 39 AUDIO
    TITLE "0:"
    INDEX 01 01:36:66
  TRACK 40 AUDIO
    TITLE "6:cjc037_0762"
    INDEX 01 01:40:25
  TRACK 41 AUDIO
    TITLE "0:"
    INDEX 01 01:43:51
  TRACK 42 AUDIO
    TITLE "7:cjc037_0763"
    INDEX 01 01:47:07
  TRACK 43 AUDIO
    TITLE "0:"
    INDEX 01 01:49:39
  TRACK 44 AUDIO
    TITLE "4:cjc037_0764"
    INDEX 01 01:51:72
  TRACK 45 AUDIO
    TITLE "0:"
    INDEX 01 01:53:67
  TRACK 46 AUDIO
    TITLE "5:cjc037_0765"
    INDEX 01 01:54:41
  TRACK 47 AUDIO
    TITLE "0:"
    INDEX 01 01:58:36
  TRACK 48 AUDIO
    TITLE "6:cjc037_0766"
    INDEX 01 02:01:72
  TRACK 49 AUDIO
    TITLE "0:"
    INDEX 01 02:05:60
  TRACK 50 AUDIO
    TITLE "7:cjc037_0767"
    INDEX 01 02:09:21
  TRACK 51 AUDIO
    TITLE "0:"
    INDEX 01 02:12:15
  TRACK 52 AUDIO
    TITLE "4:cjc037_0768"
    INDEX 01 02:14:45
  TRACK 53 AUDIO
    TITLE "0:"
    INDEX 01 02:16:42
  TRACK 54 AUDIO
    TITLE "5:cjc037_0769"
    INDEX 01 02:17:22
  TRACK 55 AUDIO
    TITLE "0:"
    INDEX 01 02:21:00
  TRACK 56 AUDIO
    TITLE "6:cjc037_0770"
    INDEX 01 02:24:36
  TRACK 57 AUDIO
    TITLE "0:"
    INDEX 01 02:27:42
  TRACK 58 AUDIO
    TITLE "7:cjc037_0771"
    INDEX 01 02:31:01
  TRACK 59 AUDIO
    TITLE "0:"
    INDEX 01 02:33:21
  TRACK 60 AUDIO
    TITLE "4:cjc037_0772"
    INDEX 01 02:35:57
  TRACK 61 AUDIO
    TITLE "0:"
    INDEX 01 02:37:27
  TRACK 62 AUDIO
    TITLE "5:cjc037_0773"
    INDEX 01 02:38:03
  TRACK 63 AUDIO
    TITLE "0:"
    INDEX 01 02:41:24
  TRACK 64 AUDIO
    TITLE "6:cjc037_0774"
    INDEX 01 02:44:60
  TRACK 65 AUDIO
    TITLE "0:"
    INDEX 01 02:47:27
  TRACK 66 AUDIO
    TITLE "7:cjc037_0775"
    INDEX 01 02:50:63
  TRACK 67 AUDIO
    TITLE "0:"
    INDEX 01 02:52:69
  TRACK 68 AUDIO
    TITLE "4:cjc037_0776"
    INDEX 01 02:55:28
  TRACK 69 AUDIO
    TITLE "0:"
    INDEX 01 02:57:20
  TRACK 70 AUDIO
    TITLE "5:cjc037_0777"
    INDEX 01 02:57:74
  TRACK 71 AUDIO
    TITLE "0:"
    INDEX 01 03:01:72
  TRACK 72 AUDIO
    TITLE "6:cjc037_0778"
    INDEX 01 03:05:29
  TRACK 73 AUDIO
    TITLE "0:"
    INDEX 01 03:09:13
  TRACK 74 AUDIO
    TITLE "7:cjc037_0779"
    INDEX 01 03:12:47
  TRACK 75 AUDIO
    TITLE "0:"
    INDEX 01 03:15:39
  TRACK 76 AUDIO
    TITLE "4:cjc037_0780"
    INDEX 01 03:17:71
  TRACK 77 AUDIO
    TITLE "0:"
    INDEX 01 03:19:54
  TRACK 78 AUDIO
    TITLE "5:cjc037_0781"
    INDEX 01 03:20:30
  TRACK 79 AUDIO
    TITLE "0:"
    INDEX 01 03:23:66
  TRACK 80 AUDIO
    TITLE "6:cjc037_0782"
    INDEX 01 03:27:30
  TRACK 81 AUDIO
    TITLE "0:"
    INDEX 01 03:30:27
  TRACK 82 AUDIO
    TITLE "7:cjc037_0783"
    INDEX 01 03:33:62
  TRACK 83 AUDIO
    TITLE "0:"
    INDEX 01 03:36:06
  TRACK 84 AUDIO
    TITLE "4:cjc037_0784"
    INDEX 01 03:38:42
  TRACK 85 AUDIO
    TITLE "0:"
    INDEX 01 03:40:39
  TRACK 86 AUDIO
    TITLE "5:cjc037_0785"
    INDEX 01 03:41:13
  TRACK 87 AUDIO
    TITLE "0:"
    INDEX 01 03:45:09
  TRACK 88 AUDIO
    TITLE "6:cjc037_0786"
    INDEX 01 03:48:44
  TRACK 89 AUDIO
    TITLE "0:"
    INDEX 01 03:51:39
  TRACK 90 AUDIO
    TITLE "7:cjc037_0787"
    INDEX 01 03:54:70
  TRACK 91 AUDIO
    TITLE "0:"
    INDEX 01 03:57:06
  TRACK 92 AUDIO
    TITLE "4:cjc037_0788"
    INDEX 01 03:59:42
  TRACK 93 AUDIO
    TITLE "0:"
    INDEX 01 04:01:25
  TRACK 94 AUDIO
    TITLE "5:cjc037_0789"
    INDEX 01 04:01:74
  TRACK 95 AUDIO
    TITLE "0:"
    INDEX 01 04:08:10
  TRACK 96 AUDIO
    TITLE "6:cjc037_0790"
    INDEX 01 04:11:43
  TRACK 97 AUDIO
    TITLE "0:"
    INDEX 01 04:15:39
  TRACK 98 AUDIO
    TITLE "7:cjc037_0791"
    INDEX 01 04:18:71
  TRACK 99 AUDIO
    TITLE "0:"
    INDEX 01 04:21:73
  TRACK 100 AUDIO
    TITLE "4:cjc037_0792"
    INDEX 01 04:24:30
  TRACK 101 AUDIO
    TITLE "0:"
    INDEX 01 04:26:14
  TRACK 102 AUDIO
    TITLE "5:cjc037_0793"
    INDEX 01 04:26:66
  TRACK 103 AUDIO
    TITLE "0:"
    INDEX 01 04:31:15
  TRACK 104 AUDIO
    TITLE "6:cjc037_0794"
    INDEX 01 04:34:50
  TRACK 105 AUDIO
    TITLE "0:"
    INDEX 01 04:38:66
  TRACK 106 AUDIO
    TITLE "7:cjc037_0795"
    INDEX 01 04:42:22
  TRACK 107 AUDIO
    TITLE "0:"
    INDEX 01 04:45:34
  TRACK 108 AUDIO
    TITLE "4:cjc037_0796"
    INDEX 01 04:47:69
  TRACK 109 AUDIO
    TITLE "0:"
    INDEX 01 04:49:64
  TRACK 110 AUDIO
    TITLE "5:cjc037_0797"
    INDEX 01 04:50:40
  TRACK 111 AUDIO
    TITLE "0:"
    INDEX 01 04:53:36
  TRACK 112 AUDIO
    TITLE "6:cjc037_0798"
    INDEX 01 04:56:71
  TRACK 113 AUDIO
    TITLE "0:"
    INDEX 01 04:59:48
  TRACK 114 AUDIO
    TITLE "7:cjc037_0799"
    INDEX 01 05:03:09
  TRACK 115 AUDIO
    TITLE "0:"
    INDEX 01 05:05:18
  TRACK 116 AUDIO
    TITLE "4:cjc037_0800"
    INDEX 01 05:07:50
  TRACK 117 AUDIO
    TITLE "0:"
    INDEX 01 05:09:37
  TRACK 118 AUDIO
    TITLE "5:cjc037_0801"
    INDEX 01 05:10:15
  TRACK 119 AUDIO
    TITLE "0:"
    INDEX 01 05:13:60
  TRACK 120 AUDIO
    TITLE "6:cjc037_0802"
    INDEX 01 05:17:21
  TRACK 121 AUDIO
    TITLE "0:"
    INDEX 01 05:20:47
  TRACK 122 AUDIO
    TITLE "7:cjc037_0803"
    INDEX 01 05:24:07
  TRACK 123 AUDIO
    TITLE "0:"
    INDEX 01 05:26:57
  TRACK 124 AUDIO
    TITLE "4:cjc037_0804"
    INDEX 01 05:29:14
  TRACK 125 AUDIO
    TITLE "0:"
    INDEX 01 05:30:72
  TRACK 126 AUDIO
    TITLE "5:cjc037_0805"
    INDEX 01 05:31:48
  TRACK 127 AUDIO
    TITLE "0:"
    INDEX 01 05:35:74
  TRACK 128 AUDIO
    TITLE "6:cjc037_0806"
    INDEX 01 05:39:32
  TRACK 129 AUDIO
    TITLE "0:"
    INDEX 01 05:42:54
  TRACK 130 AUDIO
    TITLE "7:cjc037_0807"
    INDEX 01 05:46:13
  TRACK 131 AUDIO
    TITLE "0:"
    INDEX 01 05:48:45
  TRACK 132 AUDIO
    TITLE "4:cjc037_0808"
    INDEX 01 05:51:02
  TRACK 133 AUDIO
    TITLE "0:"
    INDEX 01 05:52:64
  TRACK 134 AUDIO
    TITLE "5:cjc037_0809"
    INDEX 01 05:53:40
  TRACK 135 AUDIO
    TITLE "0:"
    INDEX 01 05:58:24
  TRACK 136 AUDIO
    TITLE "6:cjc037_0810"
    INDEX 01 06:01:57
  TRACK 137 AUDIO
    TITLE "0:"
    INDEX 01 06:06:00
  TRACK 138 AUDIO
    TITLE "7:cjc037_0811"
    INDEX 01 06:09:33
  TRACK 139 AUDIO
    TITLE "0:"
    INDEX 01 06:12:69
  TRACK 140 AUDIO
    TITLE "4:cjc037_0812"
    INDEX 01 06:15:26
  TRACK 141 AUDIO
    TITLE "0:"
    INDEX 01 06:16:43
  TRACK 142 AUDIO
    TITLE "5:cjc037_0813"
    INDEX 01 06:17:21
  TRACK 143 AUDIO
    TITLE "0:"
    INDEX 01 06:20:43
  TRACK 144 AUDIO
    TITLE "6:cjc037_0814"
    INDEX 01 06:24:01
  TRACK 145 AUDIO
    TITLE "0:"
    INDEX 01 06:27:21
  TRACK 146 AUDIO
    TITLE "7:cjc037_0815"
    INDEX 01 06:30:53
  TRACK 147 AUDIO
    TITLE "0:"
    INDEX 01 06:33:16
  TRACK 148 AUDIO
    TITLE "4:cjc037_0816"
    INDEX 01 06:35:48
  TRACK 149 AUDIO
    TITLE "0:"
    INDEX 01 06:37:10
  TRACK 150 AUDIO
    TITLE "5:cjc037_0817"
    INDEX 01 06:37:61
  TRACK 151 AUDIO
    TITLE "0:"
    INDEX 01 06:41:45
  TRACK 152 AUDIO
    TITLE "6:cjc037_0818"
    INDEX 01 06:45:04
  TRACK 153 AUDIO
    TITLE "0:"
    INDEX 01 06:48:67
  TRACK 154 AUDIO
    TITLE "7:cjc037_0819"
    INDEX 01 06:52:27
  TRACK 155 AUDIO
    TITLE "0:"
    INDEX 01 06:55:31
  TRACK 156 AUDIO
    TITLE "4:cjc037_0820"
    INDEX 01 06:57:73
  TRACK 157 AUDIO
    TITLE "0:"
    INDEX 01 06:59:21
  TRACK 158 AUDIO
    TITLE "5:cjc037_0821"
    INDEX 01 07:00:01
  TRACK 159 AUDIO
    TITLE "0:"
    INDEX 01 07:04:40
  TRACK 160 AUDIO
    TITLE "6:cjc037_0822"
    INDEX 01 07:07:74
  TRACK 161 AUDIO
    TITLE "0:"
    INDEX 01 07:10:21
  TRACK 162 AUDIO
    TITLE "7:cjc037_0823"
    INDEX 01 07:13:57
  TRACK 163 AUDIO
    TITLE "0:"
    INDEX 01 07:15:46
